<svg width="25" height="25" viewBox="0 0 25 25" fill="none" xmlns="http://www.w3.org/2000/svg">
<g id="cart 1" clip-path="url(#clip0_113_765)">
<g id="Clip path group">
<mask id="mask0_113_765" style="mask-type:luminance" maskUnits="userSpaceOnUse" x="0" y="0" width="25" height="25">
<g id="clip0_46033_207">
<path id="Vector" d="M25 0H0V25H25V0Z" fill="white"/>
</g>
</mask>
<g mask="url(#mask0_113_765)">
<g id="Group">
<path id="Vector_2" d="M24.839 8.56702C24.7168 8.44699 24.546 8.39008 24.3762 8.41281H17.7441V5.4823C17.7441 2.58609 15.3962 0.238281 12.5001 0.238281C9.60386 0.238281 7.25606 2.58609 7.25606 5.4823V8.41281H0.623814C0.438712 8.41281 0.25367 8.41281 0.16109 8.56702C0.0367436 8.68653 -0.0209419 8.85954 0.00686761 9.02975L2.32043 21.6771C2.64364 23.4414 4.16702 24.7324 5.96041 24.7619H19.0396C20.8381 24.7176 22.3583 23.4164 22.6796 21.6463L24.9931 9.02975C25.0209 8.85954 24.9633 8.68653 24.839 8.56702ZM8.4899 5.4823C8.4899 3.26757 10.2853 1.47217 12.5 1.47217C14.7147 1.47217 16.5101 3.26757 16.5101 5.4823V8.41281H8.4899V5.4823ZM21.4457 21.492C21.2379 22.6612 20.227 23.5166 19.0396 23.528H5.96041C4.77304 23.5166 3.76209 22.6612 3.55432 21.492L1.36416 9.6467H23.6358L21.4457 21.492Z" fill="#4E4E4E"/>
<path id="Vector_3" d="M17.1272 15.6624C17.468 15.6624 17.7441 15.3862 17.7441 15.0454V13.1946C17.7441 12.8539 17.468 12.5776 17.1272 12.5776C16.7864 12.5776 16.5103 12.8539 16.5103 13.1946V15.0454C16.5101 15.3862 16.7864 15.6624 17.1272 15.6624Z" fill="#4E4E4E"/>
<path id="Vector_4" d="M7.87281 15.6624C8.21355 15.6624 8.48975 15.3862 8.48975 15.0454V13.1946C8.48975 12.8539 8.21355 12.5776 7.87281 12.5776C7.53207 12.5776 7.25586 12.8539 7.25586 13.1946V15.0454C7.25586 15.3862 7.53207 15.6624 7.87281 15.6624Z" fill="#4E4E4E"/>
</g>
</g>
</g>
</g>
<defs>
<clipPath id="clip0_113_765">
<rect width="25" height="25" fill="white"/>
</clipPath>
</defs>
</svg>
