<svg width="304" height="304" viewBox="0 0 304 304" fill="none" xmlns="http://www.w3.org/2000/svg">
<path d="M60 90C60 73.4315 73.4315 60 90 60H240V210C240 226.569 226.569 240 210 240H90C73.4315 240 60 226.569 60 210V90Z" fill="white"/>
<mask id="mask0_62_32" style="mask-type:alpha" maskUnits="userSpaceOnUse" x="60" y="60" width="180" height="180">
<path d="M60 90C60 73.4315 73.4315 60 90 60H240V210C240 226.569 226.569 240 210 240H90C73.4315 240 60 226.569 60 210V90Z" fill="white"/>
</mask>
<g mask="url(#mask0_62_32)">
<g filter="url(#filter0_f_62_32)">
<path d="M68.2322 230.732C67.2559 231.709 67.2559 233.291 68.2322 234.268C69.2085 235.244 70.7915 235.244 71.7678 234.268L68.2322 230.732ZM82.5 220V217.5C81.837 217.5 81.2011 217.763 80.7322 218.232L82.5 220ZM117 222.5C118.381 222.5 119.5 221.381 119.5 220C119.5 218.619 118.381 217.5 117 217.5V222.5ZM241.768 103.768C242.744 102.791 242.744 101.209 241.768 100.232C240.791 99.2559 239.209 99.2559 238.232 100.232L241.768 103.768ZM223 119V121.5H224.036L224.768 120.768L223 119ZM195.5 116.5C194.119 116.5 193 117.619 193 119C193 120.381 194.119 121.5 195.5 121.5V116.5ZM90.2678 58.7322C89.2915 57.7559 87.7085 57.7559 86.7322 58.7322C85.7559 59.7085 85.7559 61.2915 86.7322 62.2678L90.2678 58.7322ZM111.5 83.5L113.268 85.2678L115.036 83.5L113.268 81.7322L111.5 83.5ZM95.7322 95.7322C94.7559 96.7085 94.7559 98.2915 95.7322 99.2678C96.7085 100.244 98.2915 100.244 99.2678 99.2678L95.7322 95.7322ZM71.7678 234.268L84.2678 221.768L80.7322 218.232L68.2322 230.732L71.7678 234.268ZM82.5 222.5H117V217.5H82.5V222.5ZM238.232 100.232L221.232 117.232L224.768 120.768L241.768 103.768L238.232 100.232ZM223 116.5H195.5V121.5H223V116.5ZM86.7322 62.2678L109.732 85.2678L113.268 81.7322L90.2678 58.7322L86.7322 62.2678ZM109.732 81.7322L95.7322 95.7322L99.2678 99.2678L113.268 85.2678L109.732 81.7322Z" fill="#D9D9D9"/>
</g>
<circle cx="106.5" cy="79.5" r="13.5" fill="url(#paint0_linear_62_32)" fill-opacity="0.42"/>
<g filter="url(#filter1_f_62_32)">
<circle cx="93.5" cy="101.5" r="5" stroke="#D9D9D9" stroke-width="5"/>
</g>
<g filter="url(#filter2_f_62_32)">
<circle cx="188.5" cy="118.5" r="5" stroke="#D9D9D9" stroke-width="5"/>
</g>
<g filter="url(#filter3_f_62_32)">
<circle cx="124.5" cy="219.5" r="5" stroke="#D9D9D9" stroke-width="5"/>
</g>
<path d="M108.445 194.094C110.724 194.224 112.596 195.103 114.061 196.73C115.525 198.326 116.583 200.148 117.234 202.199C117.885 204.25 118.211 206.35 118.211 208.498C118.211 210.646 117.885 212.746 117.234 214.797C116.616 216.848 115.558 218.687 114.061 220.314C112.596 221.91 110.724 222.772 108.445 222.902H90.4766C89.5977 222.87 88.849 222.561 88.2305 221.975C87.6445 221.356 87.3353 220.607 87.3027 219.729V207.619C87.3353 206.708 87.6771 205.959 88.3281 205.373C88.9792 204.755 89.7604 204.445 90.6719 204.445C91.5508 204.478 92.2995 204.803 92.918 205.422C93.5365 206.008 93.862 206.74 93.8945 207.619V215.041C93.8945 215.92 94.3503 216.359 95.2617 216.359H106.785C108.022 216.294 109.048 215.822 109.861 214.943C110.675 214.064 111.261 213.072 111.619 211.965C112.01 210.826 112.205 209.67 112.205 208.498C112.205 207.326 112.01 206.187 111.619 205.08C111.261 203.941 110.675 202.932 109.861 202.053C109.048 201.174 108.022 200.702 106.785 200.637H90.4766C88.5234 200.474 87.4655 199.416 87.3027 197.463C87.3027 196.551 87.5957 195.77 88.1816 195.119C88.8001 194.468 89.5651 194.126 90.4766 194.094H108.445ZM124.324 209.348C124.852 209.367 125.301 209.562 125.672 209.934C126.043 210.285 126.238 210.725 126.258 211.252V221.389C126.141 222.561 125.496 223.195 124.324 223.293C123.777 223.293 123.299 223.117 122.889 222.766C122.498 222.395 122.303 221.936 122.303 221.389V211.252C122.322 210.705 122.527 210.256 122.918 209.904C123.309 209.533 123.777 209.348 124.324 209.348ZM121.863 205.539C121.863 204.992 122.098 204.523 122.566 204.133C123.035 203.742 123.602 203.547 124.266 203.547C124.93 203.547 125.496 203.742 125.965 204.133C126.434 204.523 126.668 204.992 126.668 205.539C126.668 206.105 126.434 206.584 125.965 206.975C125.496 207.365 124.93 207.561 124.266 207.561C123.602 207.561 123.035 207.365 122.566 206.975C122.098 206.584 121.863 206.105 121.863 205.539ZM146.268 214.328C146.268 213.84 146.014 213.586 145.506 213.566H135.252C134.881 213.586 134.559 213.752 134.285 214.064C134.012 214.357 133.807 214.709 133.67 215.119C133.553 215.51 133.494 215.91 133.494 216.32C133.494 216.711 133.553 217.111 133.67 217.521C133.807 217.912 134.012 218.264 134.285 218.576C134.559 218.869 134.881 219.016 135.252 219.016H142.752C143.299 219.016 143.758 219.211 144.129 219.602C144.52 219.973 144.715 220.432 144.715 220.979C144.715 221.525 144.52 221.984 144.129 222.355C143.758 222.746 143.299 222.941 142.752 222.941H135.369C134.002 222.922 132.869 222.541 131.971 221.799C131.092 221.037 130.457 220.188 130.066 219.25C129.695 218.293 129.51 217.307 129.51 216.291C129.51 215.314 129.705 214.357 130.096 213.42C130.486 212.463 131.121 211.613 132 210.871C132.879 210.109 134.178 209.699 135.896 209.641H148.201C148.748 209.641 149.217 209.826 149.607 210.197C149.998 210.549 150.203 210.998 150.223 211.545V220.803C150.223 222.365 150.008 223.84 149.578 225.227C149.188 226.457 148.543 227.492 147.645 228.332C146.766 229.191 145.643 229.66 144.275 229.738H134.139C133.611 229.719 133.162 229.523 132.791 229.152C132.439 228.801 132.254 228.361 132.234 227.834C132.234 227.287 132.41 226.818 132.762 226.428C133.133 226.037 133.592 225.832 134.139 225.812H143.279C144.021 225.773 144.637 225.49 145.125 224.963C145.613 224.436 145.926 223.82 146.062 223.117C146.199 222.414 146.268 221.506 146.268 220.393V214.328ZM156.199 209.348C156.727 209.367 157.176 209.562 157.547 209.934C157.918 210.285 158.113 210.725 158.133 211.252V221.389C158.016 222.561 157.371 223.195 156.199 223.293C155.652 223.293 155.174 223.117 154.764 222.766C154.373 222.395 154.178 221.936 154.178 221.389V211.252C154.197 210.705 154.402 210.256 154.793 209.904C155.184 209.533 155.652 209.348 156.199 209.348ZM153.738 205.539C153.738 204.992 153.973 204.523 154.441 204.133C154.91 203.742 155.477 203.547 156.141 203.547C156.805 203.547 157.371 203.742 157.84 204.133C158.309 204.523 158.543 204.992 158.543 205.539C158.543 206.105 158.309 206.584 157.84 206.975C157.371 207.365 156.805 207.561 156.141 207.561C155.477 207.561 154.91 207.365 154.441 206.975C153.973 206.584 153.738 206.105 153.738 205.539ZM168.064 205.188C168.611 205.188 169.08 205.373 169.471 205.744C169.861 206.096 170.066 206.545 170.086 207.092V209.641H180.047C180.594 209.641 181.062 209.826 181.453 210.197C181.824 210.588 182.01 211.057 182.01 211.604C182.01 212.15 181.814 212.619 181.424 213.01C181.053 213.381 180.594 213.566 180.047 213.566H170.086V214.152C170.066 214.953 170.115 215.695 170.232 216.379C170.369 217.043 170.682 217.639 171.17 218.166C171.658 218.693 172.273 218.977 173.016 219.016H180.164C180.711 219.035 181.16 219.24 181.512 219.631C181.883 220.021 182.068 220.49 182.068 221.037C182.049 221.564 181.854 222.014 181.482 222.385C181.131 222.736 180.691 222.922 180.164 222.941H172.02C170.652 222.863 169.52 222.404 168.621 221.564C167.742 220.705 167.107 219.66 166.717 218.43C166.346 217.199 166.15 215.891 166.131 214.504V213.566H162.762C162.215 213.566 161.756 213.371 161.385 212.98C160.994 212.609 160.799 212.15 160.799 211.604C160.799 211.057 160.984 210.598 161.355 210.227C161.746 209.836 162.215 209.641 162.762 209.641H166.131V207.092C166.15 206.564 166.346 206.125 166.717 205.773C167.088 205.402 167.537 205.207 168.064 205.188ZM201.258 221.389V214.328C201.258 213.84 201.004 213.586 200.496 213.566L190.242 213.566C189.871 213.586 189.549 213.752 189.275 214.064C189.002 214.357 188.797 214.709 188.66 215.119C188.543 215.51 188.484 215.91 188.484 216.32C188.484 216.711 188.543 217.111 188.66 217.521C188.797 217.912 189.002 218.264 189.275 218.576C189.549 218.869 189.871 219.016 190.242 219.016L197.742 219.016C198.289 219.016 198.748 219.211 199.119 219.602C199.51 219.973 199.705 220.432 199.705 220.979C199.705 221.525 199.51 221.984 199.119 222.355C198.748 222.746 198.289 222.941 197.742 222.941L190.359 222.941C188.992 222.922 187.859 222.541 186.961 221.799C186.082 221.037 185.447 220.188 185.057 219.25C184.686 218.293 184.5 217.307 184.5 216.291C184.5 215.314 184.695 214.357 185.086 213.42C185.477 212.463 186.111 211.613 186.99 210.871C187.869 210.109 189.168 209.699 190.887 209.641H203.191C203.738 209.641 204.207 209.826 204.598 210.197C204.988 210.549 205.193 210.998 205.213 211.545V221.389C205.213 221.936 205.008 222.395 204.598 222.766C204.207 223.117 203.738 223.293 203.191 223.293C202.02 223.195 201.375 222.561 201.258 221.389ZM211.014 205.187C211.541 205.207 211.99 205.402 212.361 205.773C212.732 206.125 212.928 206.564 212.947 207.092V221.447C212.83 222.619 212.186 223.254 211.014 223.352C210.467 223.352 209.988 223.176 209.578 222.824C209.188 222.453 208.992 221.994 208.992 221.447V207.092C209.012 206.545 209.217 206.096 209.607 205.744C209.998 205.373 210.467 205.187 211.014 205.187Z" fill="#4E4E4E"/>
<g filter="url(#filter4_d_62_32)">
<path d="M103.742 111.609C112.727 105.62 124.51 99.6302 139.094 93.6406L194.562 72.1562C195.995 71.5052 197.557 71.1146 199.25 70.9844C202.896 70.724 206.021 71.7656 208.625 74.1094C211.229 76.5833 212.531 79.7083 212.531 83.4844C212.531 87.5208 211.62 90.5156 209.797 92.4687C208.104 94.5521 205.891 96.2448 203.156 97.5469L152.375 116.102C147.036 118.185 141.958 120.203 137.141 122.156C132.453 124.24 128.156 126.518 124.25 128.992C120.344 131.466 118.26 134.266 118 137.391C118.26 140.385 120.344 143.055 124.25 145.398C128.156 148.003 132.453 150.281 137.141 152.234C141.958 154.318 147.036 156.401 152.375 158.484L203.156 176.648C205.891 177.951 208.104 179.578 209.797 181.531C211.62 183.615 212.531 186.805 212.531 191.102C212.531 194.878 211.229 197.937 208.625 200.281C206.021 202.755 202.896 203.862 199.25 203.602C197.557 203.471 195.995 203.081 194.562 202.43L139.094 180.945C124.25 174.956 112.401 168.966 103.547 162.977C94.8229 157.117 90.3958 148.589 90.2656 137.391C90.3958 126.062 94.888 117.469 103.742 111.609Z" fill="url(#paint1_linear_62_32)" shape-rendering="crispEdges"/>
</g>
</g>
<defs>
<filter id="filter0_f_62_32" x="66.5" y="57" width="177" height="179" filterUnits="userSpaceOnUse" color-interpolation-filters="sRGB">
<feFlood flood-opacity="0" result="BackgroundImageFix"/>
<feBlend mode="normal" in="SourceGraphic" in2="BackgroundImageFix" result="shape"/>
<feGaussianBlur stdDeviation="0.5" result="effect1_foregroundBlur_62_32"/>
</filter>
<filter id="filter1_f_62_32" x="84" y="92" width="19" height="19" filterUnits="userSpaceOnUse" color-interpolation-filters="sRGB">
<feFlood flood-opacity="0" result="BackgroundImageFix"/>
<feBlend mode="normal" in="SourceGraphic" in2="BackgroundImageFix" result="shape"/>
<feGaussianBlur stdDeviation="1" result="effect1_foregroundBlur_62_32"/>
</filter>
<filter id="filter2_f_62_32" x="179" y="109" width="19" height="19" filterUnits="userSpaceOnUse" color-interpolation-filters="sRGB">
<feFlood flood-opacity="0" result="BackgroundImageFix"/>
<feBlend mode="normal" in="SourceGraphic" in2="BackgroundImageFix" result="shape"/>
<feGaussianBlur stdDeviation="1" result="effect1_foregroundBlur_62_32"/>
</filter>
<filter id="filter3_f_62_32" x="115" y="210" width="19" height="19" filterUnits="userSpaceOnUse" color-interpolation-filters="sRGB">
<feFlood flood-opacity="0" result="BackgroundImageFix"/>
<feBlend mode="normal" in="SourceGraphic" in2="BackgroundImageFix" result="shape"/>
<feGaussianBlur stdDeviation="1" result="effect1_foregroundBlur_62_32"/>
</filter>
<filter id="filter4_d_62_32" x="86.2656" y="70.5938" width="130.266" height="141.398" filterUnits="userSpaceOnUse" color-interpolation-filters="sRGB">
<feFlood flood-opacity="0" result="BackgroundImageFix"/>
<feColorMatrix in="SourceAlpha" type="matrix" values="0 0 0 0 0 0 0 0 0 0 0 0 0 0 0 0 0 0 127 0" result="hardAlpha"/>
<feOffset dy="4"/>
<feGaussianBlur stdDeviation="2"/>
<feComposite in2="hardAlpha" operator="out"/>
<feColorMatrix type="matrix" values="0 0 0 0 0 0 0 0 0 0 0 0 0 0 0 0 0 0 0.25 0"/>
<feBlend mode="normal" in2="BackgroundImageFix" result="effect1_dropShadow_62_32"/>
<feBlend mode="normal" in="SourceGraphic" in2="effect1_dropShadow_62_32" result="shape"/>
</filter>
<linearGradient id="paint0_linear_62_32" x1="102" y1="79.5" x2="144" y2="112.5" gradientUnits="userSpaceOnUse">
<stop stop-color="#00A3FF"/>
<stop offset="0.9999"/>
<stop offset="1" stop-color="#000E17"/>
</linearGradient>
<linearGradient id="paint1_linear_62_32" x1="203" y1="71.4969" x2="113.098" y2="207.853" gradientUnits="userSpaceOnUse">
<stop stop-color="#6CCAFF"/>
<stop offset="1" stop-opacity="0.46"/>
</linearGradient>
</defs>
</svg>
