<svg width="21" height="21" viewBox="0 0 21 21" fill="none" xmlns="http://www.w3.org/2000/svg">
<g id="Iconsax/Linear/searchnormal1" opacity="0.5">
<path id="Vector" d="M19.25 19.25L17.5 17.5M10.0625 18.375C11.1541 18.375 12.235 18.16 13.2436 17.7422C14.2521 17.3245 15.1684 16.7122 15.9403 15.9403C16.7122 15.1684 17.3245 14.2521 17.7422 13.2436C18.16 12.235 18.375 11.1541 18.375 10.0625C18.375 8.97089 18.16 7.88996 17.7422 6.88144C17.3245 5.87292 16.7122 4.95656 15.9403 4.18467C15.1684 3.41279 14.2521 2.80049 13.2436 2.38275C12.235 1.96501 11.1541 1.75 10.0625 1.75C7.85789 1.75 5.74357 2.62578 4.18467 4.18467C2.62578 5.74357 1.75 7.85789 1.75 10.0625C1.75 12.2671 2.62578 14.3814 4.18467 15.9403C5.74357 17.4992 7.85789 18.375 10.0625 18.375Z" stroke="#4E4E4E" stroke-width="1.5" stroke-linecap="round" stroke-linejoin="round"/>
</g>
</svg>
