<svg width="15" height="15" viewBox="0 0 15 15" fill="none" xmlns="http://www.w3.org/2000/svg">
<g id="Iconsax/Linear/location">
<path id="Vector" d="M7.4998 8.39365C7.75588 8.39365 8.00945 8.34321 8.24604 8.24522C8.48262 8.14722 8.69759 8.00358 8.87866 7.82251C9.05974 7.64144 9.20337 7.42647 9.30137 7.18988C9.39937 6.9533 9.4498 6.69973 9.4498 6.44365C9.4498 6.18757 9.39937 5.934 9.30137 5.69742C9.20337 5.46083 9.05974 5.24587 8.87866 5.06479C8.69759 4.88372 8.48262 4.74008 8.24604 4.64209C8.00945 4.54409 7.75588 4.49365 7.4998 4.49365C6.98263 4.49365 6.48664 4.6991 6.12095 5.06479C5.75525 5.43049 5.5498 5.92648 5.5498 6.44365C5.5498 6.96082 5.75525 7.45681 6.12095 7.82251C6.48664 8.18821 6.98263 8.39365 7.4998 8.39365Z" stroke="#4E4E4E" stroke-width="1.5"/>
<path id="Vector_2" d="M2.26256 5.30625C3.49381 -0.106249 11.5126 -0.0999984 12.7376 5.3125C13.4563 8.4875 11.4813 11.175 9.75006 12.8375C9.14511 13.421 8.33741 13.747 7.49694 13.747C6.65647 13.747 5.84877 13.421 5.24381 12.8375C3.51881 11.175 1.54381 8.48125 2.26256 5.30625Z" stroke="#4E4E4E" stroke-width="1.5"/>
</g>
</svg>
