<svg width="25" height="25" viewBox="0 0 25 25" fill="none" xmlns="http://www.w3.org/2000/svg">
<g id="Iconsax/Linear/user">
<path id="Vector" d="M21.4481 22.9168C21.4481 18.8856 17.4377 15.6252 12.5002 15.6252C7.56266 15.6252 3.55225 18.8856 3.55225 22.9168M12.5002 12.5002C13.8815 12.5002 15.2063 11.9514 16.183 10.9747C17.1598 9.99792 17.7085 8.67317 17.7085 7.29183C17.7085 5.91049 17.1598 4.58573 16.183 3.60898C15.2063 2.63223 13.8815 2.0835 12.5002 2.0835C11.1188 2.0835 9.79407 2.63223 8.81731 3.60898C7.84056 4.58573 7.29183 5.91049 7.29183 7.29183C7.29183 8.67317 7.84056 9.99792 8.81731 10.9747C9.79407 11.9514 11.1188 12.5002 12.5002 12.5002Z" stroke="#4E4E4E" stroke-width="1.5" stroke-linecap="round" stroke-linejoin="round"/>
</g>
</svg>
